<?xml version="1.0" standalone="no"?>
<!DOCTYPE svg PUBLIC "-//W3C//DTD SVG 20010904//EN"
 "http://www.w3.org/TR/2001/REC-SVG-20010904/DTD/svg10.dtd">
<svg version="1.0" xmlns="http://www.w3.org/2000/svg"
 width="820.000000pt" height="650.000000pt" viewBox="0 0 820.000000 650.000000"
 preserveAspectRatio="xMidYMid meet">
<metadata>
Created by potrace 1.16, written by Peter Selinger 2001-2019
</metadata>
<g transform="translate(0.000000,650.000000) scale(0.100000,-0.100000)"
fill="#000000" stroke="none">
<path d="M7415 6090 c-163 -25 -240 -69 -424 -242 -80 -76 -147 -144 -149
-151 -1 -7 87 -97 195 -202 109 -104 296 -284 416 -400 120 -115 223 -212 228
-214 6 -1 81 68 167 155 128 130 163 171 190 225 111 229 66 488 -114 662 -98
93 -187 139 -321 162 -92 16 -111 17 -188 5z"/>
<path d="M6238 5123 c-216 -209 -841 -810 -1388 -1337 -547 -527 -996 -961
-998 -965 -2 -5 260 -260 734 -714 l112 -107 429 411 c235 227 484 467 553
533 69 67 465 447 880 846 963 924 920 882 920 891 0 7 -796 779 -832 807 -15
12 -60 -28 -410 -365z"/>
<path d="M681 5279 c-76 -13 -183 -52 -249 -91 -31 -18 -93 -69 -137 -113 -64
-63 -90 -98 -122 -165 -79 -160 -74 -5 -71 -2225 l3 -1980 28 -80 c65 -184
187 -319 364 -401 156 -73 16 -68 1823 -72 1104 -2 1655 0 1717 8 243 27 455
172 553 375 69 142 71 157 68 673 l-3 459 -220 -213 -220 -213 -5 -250 -5
-249 -30 -43 c-17 -24 -53 -57 -80 -74 l-48 -30 -1667 0 -1667 0 -49 30 c-30
19 -60 49 -79 79 l-30 49 -3 1951 c-2 1779 -1 1955 14 1994 22 59 58 98 118
130 l51 27 1615 3 c1121 2 1631 -1 1667 -8 62 -13 123 -55 160 -112 l28 -42 3
-563 c1 -310 6 -563 11 -563 4 0 105 95 225 212 l217 211 -3 381 c-4 423 -3
411 -80 559 -50 96 -182 222 -288 275 -169 84 2 77 -1880 78 -959 1 -1698 -2
-1729 -7z"/>
<path d="M1647 4449 c-189 -27 -370 -198 -421 -395 -12 -45 -16 -109 -16 -233
l0 -172 148 3 147 3 5 172 c5 171 5 171 35 215 35 49 82 83 134 98 47 13 315
13 362 0 52 -15 99 -49 134 -98 30 -44 30 -44 35 -215 l5 -172 150 0 150 0 -1
170 c-1 191 -12 244 -71 358 -70 132 -224 243 -373 267 -76 12 -339 11 -423
-1z"/>
<path d="M920 3013 c1 -501 5 -555 52 -684 108 -293 358 -492 666 -531 116
-14 427 -4 512 17 89 21 232 93 305 152 137 111 244 281 285 453 19 79 20 118
20 573 l0 487 -920 0 -920 0 0 -467z m1053 91 c46 -23 66 -44 88 -86 47 -91
30 -198 -42 -262 -21 -20 -44 -36 -49 -36 -6 0 -10 -75 -10 -204 0 -200 -1
-205 -23 -232 -30 -35 -79 -37 -110 -5 -21 21 -22 31 -25 229 l-3 208 -30 18
c-16 10 -41 35 -56 57 -57 86 -48 193 21 266 67 72 156 89 239 47z"/>
<path d="M3717 2627 c-3 -7 -159 -260 -347 -562 -189 -301 -345 -556 -347
-565 -5 -21 260 -275 286 -274 20 0 1202 666 1198 675 -5 14 -761 734 -772
737 -7 2 -15 -3 -18 -11z"/>
<path d="M2830 1293 c-197 -311 -357 -569 -354 -572 2 -2 610 344 664 379 12
8 -4 29 -85 110 -55 56 -117 115 -137 132 l-38 30 -50 -79z"/>
</g>
</svg>
