<?xml version="1.0" standalone="no"?>
<!DOCTYPE svg PUBLIC "-//W3C//DTD SVG 20010904//EN"
 "http://www.w3.org/TR/2001/REC-SVG-20010904/DTD/svg10.dtd">
<svg version="1.0" xmlns="http://www.w3.org/2000/svg"
 width="225.000000pt" height="225.000000pt" viewBox="0 0 225.000000 225.000000"
 preserveAspectRatio="xMidYMid meet">
<metadata>
Created by potrace 1.16, written by Peter Selinger 2001-2019
</metadata>
<g transform="translate(0.000000,225.000000) scale(0.100000,-0.100000)"
fill="#000000" stroke="none">
<path d="M1003 2186 c-143 -23 -302 -84 -413 -159 -57 -38 -72 -56 -64 -81 7
-23 159 -272 182 -298 22 -26 48 -22 106 13 144 89 336 116 506 69 146 -39
316 -181 383 -320 49 -101 67 -177 67 -285 0 -108 -18 -184 -66 -284 -43 -88
-146 -200 -228 -250 -205 -123 -452 -125 -657 -5 -65 38 -89 42 -111 17 -8
-10 -54 -82 -102 -160 -62 -101 -86 -148 -81 -162 3 -11 34 -37 68 -59 366
-231 812 -228 1177 9 84 55 244 215 299 299 207 319 236 710 77 1046 -148 312
-418 529 -751 600 -98 22 -292 26 -392 10z"/>
<path d="M274 1542 c-18 -11 -274 -402 -274 -417 0 -7 61 -106 136 -219 l137
-206 196 0 c257 0 260 3 161 150 -33 49 -60 92 -60 94 0 3 172 7 383 8 l384 3
37 29 c42 32 76 95 76 141 0 64 -54 142 -113 164 -18 7 -160 11 -398 11 -203
0 -369 2 -369 5 0 3 27 46 60 95 99 147 96 150 -155 150 -104 0 -195 -4 -201
-8z"/>
</g>
</svg>
