<?xml version="1.0" standalone="no"?>
<!DOCTYPE svg PUBLIC "-//W3C//DTD SVG 20010904//EN"
 "http://www.w3.org/TR/2001/REC-SVG-20010904/DTD/svg10.dtd">
<svg version="1.0" xmlns="http://www.w3.org/2000/svg"
 width="1300.000000pt" height="1063.000000pt" viewBox="0 0 1300.000000 1063.000000"
 preserveAspectRatio="xMidYMid meet">
<metadata>
Created by potrace 1.16, written by Peter Selinger 2001-2019
</metadata>
<g transform="translate(0.000000,1063.000000) scale(0.100000,-0.100000)"
fill="#000000" stroke="none">
<path d="M2265 9444 c-170 -36 -269 -78 -376 -160 -126 -96 -228 -256 -269
-418 -20 -78 -20 -114 -20 -1712 0 -1783 -3 -1686 57 -1828 40 -95 88 -163
182 -255 67 -66 107 -96 172 -128 137 -69 212 -84 447 -90 l202 -6 0 -626 c0
-590 1 -628 19 -661 38 -73 142 -105 209 -63 15 9 327 316 695 682 l667 666
773 5 c424 3 827 4 894 2 l122 -3 3 -832 c3 -827 4 -832 26 -902 68 -215 207
-381 397 -475 162 -80 76 -74 1242 -80 l1043 -5 677 -677 c378 -378 690 -682
706 -688 70 -25 149 4 186 70 21 37 21 45 21 669 l0 631 193 0 c207 0 281 11
387 53 105 43 172 89 263 180 71 72 95 106 132 180 25 51 54 128 65 171 20 77
20 115 20 1708 0 1841 6 1696 -82 1877 -44 90 -64 117 -137 191 -82 82 -166
141 -241 169 -19 7 -44 17 -55 22 -88 39 -71 39 -2037 39 l-1887 0 -3 838 -3
837 -23 69 c-75 222 -207 378 -402 476 -41 20 -104 46 -140 56 -63 18 -141 19
-2085 20 -1111 1 -2029 0 -2040 -2z m4042 -318 c157 -42 271 -149 322 -303 20
-59 21 -83 21 -508 0 -354 3 -445 13 -439 9 6 9 5 0 -7 -9 -12 -13 -105 -13
-369 0 -195 -3 -357 -7 -360 -5 -3 -35 -14 -68 -24 -192 -57 -367 -208 -455
-391 -77 -159 -73 -120 -77 -882 l-4 -683 -272 0 c-150 0 -572 0 -939 0 -554
0 -674 -2 -700 -14 -19 -8 -269 -250 -593 -575 l-560 -561 -5 523 -5 523 -24
36 c-44 64 -38 62 -366 69 -339 6 -361 10 -467 82 -80 55 -150 146 -180 235
l-23 67 -2 1585 c-3 1725 -5 1647 53 1762 51 102 160 193 272 229 54 17 145
18 2042 18 1668 1 1993 -1 2037 -13z m4468 -2300 c111 -42 206 -121 263 -218
55 -96 52 -7 52 -1750 0 -1153 -3 -1621 -11 -1651 -32 -121 -136 -243 -256
-300 l-68 -32 -305 -5 c-349 -6 -356 -7 -397 -90 -23 -44 -23 -45 -23 -560 l0
-515 -572 572 c-470 469 -580 573 -610 581 -23 6 -435 11 -1076 11 -817 2
-1049 5 -1088 15 -145 38 -269 159 -315 307 -18 59 -19 119 -19 1664 0 1568 0
1604 20 1667 49 160 197 289 360 317 32 5 868 8 2025 7 1906 -1 1972 -2 2020
-20z"/>
<path d="M4082 8668 c-9 -9 -12 -74 -12 -230 l0 -218 -408 0 c-313 0 -411 -3
-421 -12 -11 -10 -13 -10 -7 0 11 19 -323 17 -350 -2 -17 -13 -19 -27 -19
-170 0 -114 3 -158 13 -168 10 -10 71 -14 245 -16 128 -2 237 -5 243 -7 6 -2
17 -25 24 -52 7 -26 33 -102 57 -168 131 -359 288 -653 495 -929 l60 -80 -34
-28 c-278 -234 -654 -445 -1005 -564 -59 -21 -114 -42 -120 -47 -23 -18 -13
-47 56 -165 92 -156 118 -192 137 -192 24 0 272 104 423 178 253 123 529 296
730 455 l94 74 101 -79 c250 -196 547 -368 871 -506 196 -83 272 -107 290 -92
20 16 185 322 185 342 0 23 -15 31 -137 71 -343 113 -705 299 -947 486 -33 25
-64 49 -69 52 -5 4 13 35 40 70 238 304 406 633 535 1042 l43 137 200 1 c258
2 275 3 286 20 12 20 11 326 -1 334 -5 3 -282 6 -615 6 l-605 -1 0 219 c0 121
-3 226 -6 235 -5 14 -31 16 -183 16 -124 0 -181 -4 -189 -12z m688 -818 c0
-12 -79 -238 -109 -313 -77 -193 -217 -441 -323 -574 l-51 -65 -23 29 c-113
137 -275 402 -355 582 -47 106 -131 336 -124 343 6 5 985 3 985 -2z"/>
<path d="M8504 6230 c-11 -4 -47 -82 -101 -216 -46 -115 -88 -219 -93 -232
-16 -37 -232 -572 -395 -977 -84 -209 -217 -537 -295 -730 -197 -488 -222
-553 -218 -572 3 -16 23 -18 220 -21 l216 -2 118 297 119 298 646 3 645 2 119
-300 118 -300 217 0 c202 0 218 1 222 18 4 15 -392 1023 -446 1137 -8 17 -48
116 -89 220 -214 544 -541 1352 -552 1364 -10 10 -61 14 -223 15 -116 1 -219
-1 -228 -4z m335 -767 c63 -159 174 -441 248 -628 73 -187 138 -350 143 -363
6 -13 10 -25 10 -27 0 -3 -232 -5 -515 -5 -283 0 -515 4 -515 9 0 8 86 230
250 646 39 99 112 287 163 417 51 131 94 238 98 238 3 0 56 -129 118 -287z"/>
</g>
</svg>
